<?xml version="1.0"?>
<svg xmlns="http://www.w3.org/2000/svg" viewBox="0 0 100 100"><path d="M77.5 28.8L61.2 12.5C60 11.3 59 10.8 58 10.8H22.6c-.9 0-1.7.8-1.7 1.7v75.1c0 .9.8 1.7 1.7 1.7h54.8c.9 0 1.7-.8 1.7-1.7V32c0-1-.5-2.1-1.6-3.2z" fill="#e0e0e0"/><path d="M62.4 28.8h15.1L61.2 12.5v15.1c0 .6.6 1.2 1.2 1.2z" fill="#666766"/><path d="M62.3 8.3c-.5-.5-1.2-.8-1.9-.8H22.6c-2.7 0-5 2.2-5 5v75.1c0 2.7 2.2 5 5 5h54.8c2.7 0 5-2.2 5-5V31.1c0-1.8-.7-3.4-1.9-4.7L62.3 8.3zm-1.1 4.2l16.2 16.2h-15c-.7 0-1.2-.5-1.2-1.2m17.9 60c0 .9-.8 1.7-1.7 1.7H22.6c-.9 0-1.7-.8-1.7-1.7v-75c0-.9.8-1.7 1.7-1.7H58v16.8c0 2.5 2 4.5 4.5 4.5h16.7v55.4z" fill="#010101"/><path d="M34.151 64.83l-2 6.706-2.001-6.706h-3.184l2.987 9.439-2.987 9.946h3.184l2.001-7.326 2 7.326h3.212l-2.958-9.946 2.958-9.439zm8.058 12.285h-2.845v1.747c0 2.62 1.014 5.719 5.184 5.719 3.494 0 5.213-2.226 5.213-5.55 0-3.945-2.452-5.157-4.931-6.143-2.113-.817-2.621-1.859-2.621-2.789 0-.592-.141-2.79 2.339-2.79 2.113 0 2.339 2.029 2.339 2.874v.677h2.874v-.677c0-2.648-1.015-5.719-5.213-5.719-3.522 0-5.184 2.056-5.184 5.438 0 3.578 1.747 4.423 5.099 5.917 2.114.901 2.424 2.423 2.424 3.212 0 .676-.226 2.676-2.339 2.676-2.17 0-2.339-1.916-2.339-2.845zm9.552 7.1h10.397v-3.099H54.86V64.83h-3.099zm16.032 0h3.128v-16.37h3.663V64.83H64.13v3.015h3.663z"/><metadata xmlns:d="https://loading.io/stock/"><d:name>xslt</d:name><d:tags>type,postfix,suffix,data,xslt,file format</d:tags><d:license>by</d:license><d:slug>5l6haf</d:slug></metadata></svg>