<svg xmlns="http://www.w3.org/2000/svg" xmlns:xlink="http://www.w3.org/1999/xlink" width="140.939" height="43.331" viewBox="0 0 140.939 43.331">
  <defs>
    <linearGradient id="linear-gradient" x1="0.5" x2="0.5" y2="1" gradientUnits="objectBoundingBox">
      <stop offset="0" stop-color="#afd135"/>
      <stop offset="1" stop-color="#70ba44"/>
    </linearGradient>
  </defs>
  <g id="Group_2465" data-name="Group 2465" transform="translate(-390 -3998)">
    <path id="Path_920" data-name="Path 920" d="M.744,1.7A4.361,4.361,0,0,1-2.48.5a5.219,5.219,0,0,1-.929-3.318V-10.72H.484a.337.337,0,0,0,.334-.341v-3.807a.337.337,0,0,0-.334-.341H-3.409v-5.2a.338.338,0,0,0-.336-.341H-8.763a.338.338,0,0,0-.335.341v17.6C-9.1.3-8.177,2.6-6.283,4.212A9.883,9.883,0,0,0,.233,6.192c.168,0,.336,0,.505-.008a.34.34,0,0,0,.326-.342V2.037A.338.338,0,0,0,.744,1.7" transform="translate(524.635 4024.529)" fill="#bbb"/>
    <path id="Path_921" data-name="Path 921" d="M.74,1.952l-.251,0a3.653,3.653,0,0,1-2.953-1,5.512,5.512,0,0,1-.9-3.561V-23.542a.338.338,0,0,0-.335-.342H-8.719a.338.338,0,0,0-.335.342V-2.574c0,3.256.908,5.626,2.771,7.243A8.941,8.941,0,0,0-.348,6.521C.02,6.521.4,6.508.774,6.478a.34.34,0,0,0,.309-.341V2.293a.345.345,0,0,0-.1-.243.36.36,0,0,0-.242-.1" transform="translate(467.746 4024.2)" fill="#bbb"/>
    <path id="Path_922" data-name="Path 922" d="M.428.72C.662-2.465,2.254-4.29,4.808-4.29c2.813,0,4.066,1.457,4.066,4.725q0,.14,0,.286ZM4.691-8.812c-6.858,0-9.929,5.562-9.929,11.077,0,5.5,3.1,11.045,10.036,11.045a10.822,10.822,0,0,0,7.88-3.076.347.347,0,0,0,.029-.44L10.7,7.043a.331.331,0,0,0-.465-.074A8.514,8.514,0,0,1,5.265,8.8c-.137,0-.275,0-.422-.014C2.5,8.715.945,7.13.443,4.308H13.686a.337.337,0,0,0,.331-.289A16.363,16.363,0,0,0,14.2,1.573c0-6.5-3.557-10.385-9.513-10.385" transform="translate(441.553 4017.567)" fill="#bbb"/>
    <path id="Path_923" data-name="Path 923" d="M.808,0A7.913,7.913,0,0,0-4.634,2.314L-4.712.856A.337.337,0,0,0-5.046.532H-9.553a.338.338,0,0,0-.335.342V21.338a.338.338,0,0,0,.335.34h5.016a.338.338,0,0,0,.336-.34V7.228C-2.37,5.119-1.556,4.776-.346,4.776c1.683,0,3.482,1.162,3.482,4.423V21.338a.337.337,0,0,0,.335.34H8.489a.338.338,0,0,0,.335-.34V8.155A7.826,7.826,0,0,0,.808,0" transform="translate(481.569 4008.755)" fill="#bbb"/>
    <path id="Path_924" data-name="Path 924" d="M.428.72C.662-2.465,2.255-4.29,4.809-4.29c2.811,0,4.066,1.457,4.066,4.725,0,.093,0,.188,0,.286ZM4.692-8.812c-6.859,0-9.929,5.562-9.929,11.077,0,5.5,3.1,11.045,10.036,11.045a10.822,10.822,0,0,0,7.881-3.076.347.347,0,0,0,.028-.44l-2-2.75a.331.331,0,0,0-.465-.074A8.516,8.516,0,0,1,5.266,8.8c-.137,0-.275,0-.422-.014C2.5,8.715.946,7.13.443,4.308H13.687a.338.338,0,0,0,.331-.289A16.336,16.336,0,0,0,14.2,1.573c0-6.5-3.557-10.385-9.512-10.385" transform="translate(498.481 4017.567)" fill="#bbb"/>
    <path id="Path_925" data-name="Path 925" d="M.111.136H.461c.075,0,.148,0,.223-.009a.578.578,0,0,0,.2-.045.358.358,0,0,0,.145-.114.356.356,0,0,0,.055-.214.323.323,0,0,0-.043-.176A.314.314,0,0,0,.928-.534.52.52,0,0,0,.771-.593.96.96,0,0,0,.6-.611H.111Zm0,1.214H-.161V-.858H.674A.729.729,0,0,1,1.2-.7a.618.618,0,0,1,.157.455.729.729,0,0,1-.043.264A.546.546,0,0,1,1.194.2.619.619,0,0,1,1.02.319,1.088,1.088,0,0,1,.809.383l.648.966H1.149L.5.383H.111Zm-1.2-1.1A1.616,1.616,0,0,0-.961.892a1.65,1.65,0,0,0,.343.52,1.635,1.635,0,0,0,.512.349,1.53,1.53,0,0,0,.628.129,1.535,1.535,0,0,0,.626-.129,1.63,1.63,0,0,0,.511-.349A1.634,1.634,0,0,0,2,.892,1.616,1.616,0,0,0,2.13.254,1.619,1.619,0,0,0,2-.385,1.63,1.63,0,0,0,1.659-.9a1.612,1.612,0,0,0-.511-.349,1.536,1.536,0,0,0-.626-.13,1.531,1.531,0,0,0-.628.13A1.617,1.617,0,0,0-.618-.9a1.645,1.645,0,0,0-.343.519,1.619,1.619,0,0,0-.127.638m-.274,0A1.861,1.861,0,0,1-1.212-.49a1.936,1.936,0,0,1,.4-.607,1.925,1.925,0,0,1,.6-.412A1.764,1.764,0,0,1,.522-1.66a1.773,1.773,0,0,1,.73.151,1.926,1.926,0,0,1,1,1.019A1.844,1.844,0,0,1,2.4.254,1.849,1.849,0,0,1,2.253,1a1.946,1.946,0,0,1-.4.607,1.933,1.933,0,0,1-.6.412,1.791,1.791,0,0,1-.73.151,1.781,1.781,0,0,1-.731-.151,1.925,1.925,0,0,1-.6-.412A1.948,1.948,0,0,1-1.212,1,1.867,1.867,0,0,1-1.361.254" transform="translate(528.536 4028.215)" fill="#bbb"/>
    <path id="Path_926" data-name="Path 926" d="M.808,0A7.913,7.913,0,0,0-4.634,2.314L-4.712.856A.337.337,0,0,0-5.046.532H-9.553a.338.338,0,0,0-.335.342V21.338a.338.338,0,0,0,.335.34h5.016a.338.338,0,0,0,.336-.34V7.228C-2.37,5.119-1.557,4.776-.347,4.776c1.684,0,3.483,1.162,3.483,4.423V21.338a.337.337,0,0,0,.335.34H8.489a.338.338,0,0,0,.335-.34V8.155A7.826,7.826,0,0,0,.808,0" transform="translate(412.198 4008.792)" fill="#bbb"/>
    <path id="Path_929" data-name="Path 929" d="M21.667-48.033A21.69,21.69,0,0,0,0-26.368H0A21.691,21.691,0,0,0,21.667-4.7h0A21.69,21.69,0,0,0,43.331-26.368h0A21.69,21.69,0,0,0,21.667-48.033ZM4.462-26.368a17.223,17.223,0,0,1,17.2-17.2h0a17.223,17.223,0,0,1,17.2,17.2h0a17.223,17.223,0,0,1-17.2,17.2h0a17.223,17.223,0,0,1-17.2-17.2" transform="translate(390 4046.033)" fill="url(#linear-gradient)"/>
  </g>
</svg>
