<?xml version="1.0" encoding="utf-8"?>
<!-- Generator: Adobe Illustrator 19.2.1, SVG Export Plug-In . SVG Version: 6.00 Build 0)  -->
<svg version="1.1" id="layer" xmlns="http://www.w3.org/2000/svg" xmlns:xlink="http://www.w3.org/1999/xlink" x="0px" y="0px"
	 viewBox="0 0 652 652" style="enable-background:new 0 0 652 652;" xml:space="preserve">
<style type="text/css">
	.st0{fill-rule:evenodd;clip-rule:evenodd;fill:#2E2A25;}
	.st1{fill-rule:evenodd;clip-rule:evenodd;fill:#8C2332;}
</style>
<g>
	<path class="st0" d="M324.3,327.1c-0.5,0.5-0.7,1.1-0.7,1.9c0,0.6,0.1,1.2,0.5,1.6l26.5,27h-37.4l-14.6-19.1v19.1H269v-72.8h29.6
		v38l11.8-15.8h34.2L324.3,327.1z M146.9,359c-20.1,0-37.7-1.4-37.7-22.3v-30.2h29.6v27.1c0,7.5,2.9,10.1,8.1,10.1s8.1-2.6,8.1-10.1
		v-27.1h29.6v30.2C184.6,357.6,167,359,146.9,359 M413.7,326.7c0-6.6,3.5-10.9,9.9-10.9c6.8,0,9.9,4.3,9.9,10.9H413.7z M462.5,336.4
		v-2.7c0-22.4-15.7-28.5-38.9-28.5c-26.8,0-38.9,7.9-38.9,27.5c0,19.1,11.4,26.9,39.9,26.9c31.3,0,36.3-8.1,37.2-16.5h-29
		c-0.8,3.2-3.1,5.8-8.9,5.8c-6.8,0-10.2-3.9-10.2-12.5H462.5z M380.5,284.9h-29.6v72.8h29.6V284.9z M265.2,326.3
		c0-17.3-15.3-21.8-36.1-21.8c-30.6,0-41.1,8.1-41.1,27.1c0,19.7,12.7,27.3,38.4,27.3c13.2,0,20.8-1.6,27.9-5.1
		c7.1-3.5,11.4-9,11.5-16.6h-29c0,4.8-2.3,9.5-9.1,9.5c-7.2,0-9.1-6.8-9.1-15.7c0-8.4,2.8-14.1,9.5-14.1c2.9,0,4.8,1,6.3,2.7
		c1.4,1.7,2.1,4,2.4,6.8H265.2z M49.3,327.2h14.1c10.6,0,14.4,2.7,14.4,8.8c0,6-3.8,8.8-14.4,8.8H49.3V327.2z M20.6,357.6h53.6
		c15.7,0,20.5-1.6,25.2-5.6c3.2-2.7,5.3-7.4,5.3-13.1c0-12.5-8.6-17.5-17.1-18c7.9-2.1,14-7.2,14-17c0-12.3-9.3-18.9-31.3-18.9H20.6
		V357.6z M49.3,298.4h14c9.6,0,11.8,2.8,11.8,8c0,4.8-2.8,8-11.7,8H49.3V298.4"/>
	<path class="st1" d="M512.1,319.4v-23.6h45.2c6.5,0,11.8,5.3,11.8,11.8c0,6.5-5.3,11.8-11.8,11.8H512.1z M512.1,325.7h45.2
		c6.5,0,11.8,5.3,11.8,11.8c0,6.5-5.3,11.8-11.8,11.8h-45.2V325.7z M523.6,277.5c22.8-1.3,45.7-1.3,68.5,0
		c13.8,1.3,25.6,11.4,27.5,25.4c1.3,13,1.3,26.1,0,39.2c-2,14-13.7,24.1-27.5,25.4c-22.8,1.3-45.7,1.3-68.5,0
		c-13.8-1.3-25.6-11.4-27.5-25.4c-1.3-13-1.3-26.1,0-39.2C498,288.9,509.8,278.8,523.6,277.5"/>
</g>
</svg>
